# xmcd
#
# Track frame offsets: 
#        150
#        11135
#        21918
#        31663
#        44341
#        55625
#        66610
#        77421
#        89639
#        99321
#        109303
#        119814
#        131788
#        142634
#        155339
#        169117
#        183181
#        194883
#        204872
#        215927
#        225762
#        236984
#        250275
#        259470
#        271486
#        282952
#        294947
#        306050
#        317801
#
# Disc length: 4377 seconds
#
# Revision: 0
# Processed by: cddbd v1.5.2PL0 Copyright (c) Steve Scherf et al.
# Submitted via: ExactAudioCopy v1.0b3
#
DISCID=ae11171d
DTITLE=Tommy Collins - This Is Tommy Collins
DYEAR=1959
DGENRE=Country
TTITLE0=You Better Not Do That
TTITLE1=I Always Get A Souvenir
TTITLE2=Untied
TTITLE3=How Do I Say Goodbye
TTITLE4=I'll Be Gone
TTITLE5=It Tickles
TTITLE6=You Gotta Have A License
TTITLE7=High On A Hilltop
TTITLE8=Boob-I-Lak
TTITLE9=Smooth Sailin'
TTITLE10=Love A-Me S'il Vous Plait
TTITLE11=What'cha Gonna Do Now
TTITLE12=All Of The Monkeys Ain't In The Zoo
TTITLE13=How Do I Say Goodbye
TTITLE14=Those Old Love Letters From You
TTITLE15=A Man We All Ought To Know
TTITLE16=The Feet Of The Traveler
TTITLE17=Smooth Sailin'
TTITLE18=I'll Always Speak Well Of You
TTITLE19=Think It Over Boys
TTITLE20=I Think Of You Yet
TTITLE21=Are You Ready To Go
TTITLE22=Upon This Rock
TTITLE23=Jesus Keep Me Near The Cross
TTITLE24=Softly And Tenderly Jesus Is Calling
TTITLE25=Where Could I Go But To The Lord 
TTITLE26=Amazing Grace
TTITLE27=Who At My Door Is Standing
TTITLE28=The Old Rugged Cross
EXTD=
EXTT0=
EXTT1=
EXTT2=
EXTT3=
EXTT4=
EXTT5=
EXTT6=
EXTT7=
EXTT8=
EXTT9=
EXTT10=
EXTT11=
EXTT12=
EXTT13=
EXTT14=
EXTT15=
EXTT16=
EXTT17=
EXTT18=
EXTT19=
EXTT20=
EXTT21=
EXTT22=
EXTT23=
EXTT24=
EXTT25=
EXTT26=
EXTT27=
EXTT28=
PLAYORDER=
